<mxfile host="app.diagrams.net" agent="Mozilla/5.0 (Windows NT 10.0; Win64; x64) AppleWebKit/537.36 (KHTML, like Gecko) Chrome/133.0.0.0 Safari/537.36" version="26.0.16">
  <diagram name="Page-1" id="Page-1">
    <mxGraphModel dx="1434" dy="746" grid="1" gridSize="10" guides="1" tooltips="1" connect="1" arrows="1" fold="1" page="1" pageScale="1" pageWidth="827" pageHeight="1169" math="0" shadow="0">
      <root>
        <mxCell id="0" />
        <mxCell id="1" parent="0" />
        <UserObject label="&lt;div style=&quot;font-size: 1px&quot;&gt;&lt;p style=&quot;text-align:center;margin-left:0;margin-right:0;margin-top:0px;margin-bottom:0px;text-indent:0;vertical-align:middle;direction:ltr;&quot;&gt;&lt;font style=&quot;font-size:12px;font-family:0;color:#000000;direction:ltr;letter-spacing:0px;line-height:120%;opacity:1&quot;&gt;trigger pool&lt;br/&gt;&lt;/font&gt;&lt;font style=&quot;font-size:12px;font-family:0;color:#000000;direction:ltr;letter-spacing:0px;line-height:120%;opacity:1&quot;&gt;快慢线程池&lt;/font&gt;&lt;/p&gt;&lt;/div&gt;" tags="Background" id="2">
          <mxCell style="verticalAlign=middle;align=center;overflow=width;vsdxID=1;fillColor=#FFFFFF;gradientColor=none;shape=stencil(lVLRDoIwDPyavS5bJ0GeEf+DhCGLyHCA4t/LLMoGZIlvvfa6u3YlIu2qvJUEWNcbfZVPVfQVEScCoJpKGtVPEREZEWmpjbwYPTQF4ja3TBvd9MO+MGIfsx3AXohieuCfxBm59yEvLJf7ZB+OgPBAeTwTwCXMb9WqcXSTiB6Fp80CwpyFpZc67A/iiy/02QzQKPlH/pf4GnDHWXnadeDsapcdXvxGfjX9Zh5fPPznU7AcS6nqGm/Nra+Pa0rhYYrsDQ==);strokeColor=#000000;strokeWidth=2;spacingTop=-3;spacingBottom=-3;spacingLeft=-3;spacingRight=-3;points=[];labelBackgroundColor=none;rounded=0;html=1;whiteSpace=wrap;" parent="1" vertex="1">
            <mxGeometry x="140" y="81" width="96" height="54" as="geometry" />
          </mxCell>
        </UserObject>
        <UserObject label="&lt;div style=&quot;font-size: 1px&quot;&gt;&lt;p style=&quot;text-align:center;margin-left:0;margin-right:0;margin-top:0px;margin-bottom:0px;text-indent:0;vertical-align:middle;direction:ltr;&quot;&gt;&lt;font style=&quot;font-size:12px;font-family:0;color:#000000;direction:ltr;letter-spacing:0px;line-height:120%;opacity:1&quot;&gt;注册中心JobRegistryHelper&lt;/font&gt;&lt;/p&gt;&lt;/div&gt;" tags="Background" id="3">
          <mxCell style="verticalAlign=middle;align=center;overflow=width;vsdxID=2;fillColor=#FFFFFF;gradientColor=none;shape=stencil(lVLRDoIwDPyavS5bJ0GeEf+DhCGLyHCA4t/LLMoGZIlvvfa6u3YlIu2qvJUEWNcbfZVPVfQVEScCoJpKGtVPEREZEWmpjbwYPTQF4ja3TBvd9MO+MGIfsx3AXohieuCfxBm59yEvLJf7ZB+OgPBAeTwTwCXMb9WqcXSTiB6Fp80CwpyFpZc67A/iiy/02QzQKPlH/pf4GnDHWXnadeDsapcdXvxGfjX9Zh5fPPznU7AcS6nqGm/Nra+Pa0rhYYrsDQ==);strokeColor=#000000;strokeWidth=2;spacingTop=-3;spacingBottom=-3;spacingLeft=-3;spacingRight=-3;points=[];labelBackgroundColor=none;rounded=0;html=1;whiteSpace=wrap;" parent="1" vertex="1">
            <mxGeometry x="140" y="240" width="96" height="54" as="geometry" />
          </mxCell>
        </UserObject>
        <UserObject label="&lt;div style=&quot;font-size: 1px&quot;&gt;&lt;p style=&quot;text-align:center;margin-left:0;margin-right:0;margin-top:0px;margin-bottom:0px;text-indent:0;vertical-align:middle;direction:ltr;&quot;&gt;&lt;font style=&quot;color: rgb(0, 0, 0); letter-spacing: 0px; font-size: 12px; direction: ltr; line-height: 14.4px; opacity: 1;&quot;&gt;registryOrRemoveThreadPool&lt;br&gt;&lt;/font&gt;&lt;font style=&quot;color: rgb(0, 0, 0); letter-spacing: 0px; font-size: 12px; direction: ltr; line-height: 14.4px; opacity: 1;&quot;&gt;线程池，执行注册和移除执行器地址&lt;/font&gt;&lt;/p&gt;&lt;/div&gt;" tags="Background" id="4">
          <mxCell style="verticalAlign=middle;align=center;overflow=width;vsdxID=3;fillColor=#fff7bc;gradientColor=none;shape=stencil(UzV2Ls5ILEhVNTIoLinKz04tz0wpyVA1dlE1MsrMy0gtyiwBslSNXVWNndPyi1LTi/JL81Ig/IJEkEoQKze/DGRCBUSfAUiHkUElMs8NojAnMw9JoaWxnrkpsYoNDVDNNbbQMzUlXjmMj1Ux2UrJUwhkIMIuLTMnB1kGPZSBQpAYMnYFAA==);strokeColor=none;strokeWidth=0;spacingTop=-3;spacingBottom=-3;spacingLeft=-3;spacingRight=-3;points=[];labelBackgroundColor=none;rounded=0;html=1;whiteSpace=wrap;" parent="1" vertex="1">
            <mxGeometry x="380" y="174.25" width="340" height="95.75" as="geometry" />
          </mxCell>
        </UserObject>
        <UserObject label="" tags="Background" id="5">
          <mxCell style="vsdxID=4;fillColor=#fff7bc;gradientColor=none;shape=stencil(UzV2Ls5ILEhVNTIoLinKz04tz0wpyVA1dlE1MsrMy0gtyiwBslSNXVWNndPyi1LTi/JL81Ig/IJEkEoQKze/DGRCBUSfpbGeuSlIl5FBJUTEAMxzgyjOyczDq9jYQs/UFLcGQwMDUpQTcAyQgfBGWmZODrIMuoeBQpDAMnYFAA==);strokeColor=none;strokeWidth=0;spacingTop=-3;spacingBottom=-3;spacingLeft=-3;spacingRight=-3;points=[];labelBackgroundColor=none;rounded=0;html=1;whiteSpace=wrap;" parent="1" vertex="1">
            <mxGeometry x="312" y="189" width="256" height="41" as="geometry" />
          </mxCell>
        </UserObject>
        <UserObject label="" tags="Background" id="6">
          <mxCell style="vsdxID=5;fillColor=none;gradientColor=none;shape=stencil(UzV2Ls5ILEhVNTIoLinKz04tz0wpyVA1dlE1MsrMy0gtyiwBslSNXVWNndPyi1LTi/JL81Ig/IJEkEoQKze/DGRCBUSfAUiHkUElMs8NojAnMw9JoaWxnrkpsYoNDVDNNbbQMzUlXjmMj1Ux2UrJUwhkIMIOyEEPWKAQJFKMXQE=);strokeColor=none;strokeWidth=0;spacingTop=-3;spacingBottom=-3;spacingLeft=-3;spacingRight=-3;points=[];labelBackgroundColor=none;rounded=0;html=1;whiteSpace=wrap;" parent="1" vertex="1">
            <mxGeometry x="312" y="189" width="256" height="41" as="geometry" />
          </mxCell>
        </UserObject>
        <UserObject label="&lt;div style=&quot;font-size: 1px&quot;&gt;&lt;p style=&quot;text-align:center;margin-left:0;margin-right:0;margin-top:0px;margin-bottom:0px;text-indent:0;vertical-align:middle;direction:ltr;&quot;&gt;&lt;font style=&quot;font-size:12px;font-family:0;color:#000000;direction:ltr;letter-spacing:0px;line-height:120%;opacity:1&quot;&gt;registryMonitorThread&lt;br/&gt;&lt;/font&gt;&lt;font style=&quot;font-size:12px;font-family:0;color:#000000;direction:ltr;letter-spacing:0px;line-height:120%;opacity:1&quot;&gt;线程检测执行器是否过期（30s一个周期）。&lt;br/&gt;&lt;/font&gt;&lt;font style=&quot;font-size:12px;font-family:0;color:#000000;direction:ltr;letter-spacing:0px;line-height:120%;opacity:1&quot;&gt;过期定义：执行器90秒没更新过自己的信息&lt;/font&gt;&lt;/p&gt;&lt;/div&gt;" tags="Background" id="7">
          <mxCell style="verticalAlign=middle;align=center;overflow=width;vsdxID=6;fillColor=#fff7bc;gradientColor=none;shape=stencil(UzV2Ls5ILEhVNTIoLinKz04tz0wpyVA1dlE1MsrMy0gtyiwBslSNXVWNndPyi1LTi/JL81Ig/IJEkEoQKze/DGRCBUSfAUiHkUElMs8NojAnMw9JoaWJnhGxag0NUI01NtIzMyVeOYyPVTHZSslTCGQggi4tMycHWQY9kIFCkAgydgUA);strokeColor=none;strokeWidth=0;spacingTop=-3;spacingBottom=-3;spacingLeft=-3;spacingRight=-3;points=[];labelBackgroundColor=none;rounded=0;html=1;whiteSpace=wrap;" parent="1" vertex="1">
            <mxGeometry x="312" y="320" width="276" height="49" as="geometry" />
          </mxCell>
        </UserObject>
        <UserObject label="" tags="Background" id="8">
          <mxCell style="vsdxID=7;fillColor=#fff7bc;gradientColor=none;shape=stencil(UzV2Ls5ILEhVNTIoLinKz04tz0wpyVA1dlE1MsrMy0gtyiwBslSNXVWNndPyi1LTi/JL81Ig/IJEkEoQKze/DGRCBUSfpYmeEUiTkUElRMAAzHODqM3JzMOn1thIz8wUt3pDAwNSlON3CpCB8ENaZk4Osgy6b4FCkJAydgUA);strokeColor=none;strokeWidth=0;spacingTop=-3;spacingBottom=-3;spacingLeft=-3;spacingRight=-3;points=[];labelBackgroundColor=none;rounded=0;html=1;whiteSpace=wrap;" parent="1" vertex="1">
            <mxGeometry x="312" y="286" width="276" height="49" as="geometry" />
          </mxCell>
        </UserObject>
        <UserObject label="" tags="Background" id="9">
          <mxCell style="vsdxID=8;fillColor=none;gradientColor=none;shape=stencil(UzV2Ls5ILEhVNTIoLinKz04tz0wpyVA1dlE1MsrMy0gtyiwBslSNXVWNndPyi1LTi/JL81Ig/IJEkEoQKze/DGRCBUSfAUiHkUElMs8NojAnMw9JoaWJnhGxag0NUI01NtIzMyVeOYyPVTHZSslTCGQggg7IQQ9XoBAkToxdAQ==);strokeColor=none;strokeWidth=0;spacingTop=-3;spacingBottom=-3;spacingLeft=-3;spacingRight=-3;points=[];labelBackgroundColor=none;rounded=0;html=1;whiteSpace=wrap;" parent="1" vertex="1">
            <mxGeometry x="312" y="286" width="276" height="49" as="geometry" />
          </mxCell>
        </UserObject>
        <mxCell id="ZNun7r2rq0hJ698dpIaS-61" style="edgeStyle=orthogonalEdgeStyle;rounded=0;orthogonalLoop=1;jettySize=auto;html=1;" edge="1" parent="1" source="10">
          <mxGeometry relative="1" as="geometry">
            <mxPoint x="900" y="440" as="targetPoint" />
          </mxGeometry>
        </mxCell>
        <UserObject label="&lt;div style=&quot;font-size: 1px&quot;&gt;&lt;p style=&quot;text-align:center;margin-left:0;margin-right:0;margin-top:0px;margin-bottom:0px;text-indent:0;vertical-align:middle;direction:ltr;&quot;&gt;&lt;font style=&quot;font-size:12px;font-family:0;color:#000000;direction:ltr;letter-spacing:0px;line-height:120%;opacity:1&quot;&gt;fastTriggerPool（默认200线程）&lt;/font&gt;&lt;/p&gt;&lt;/div&gt;" tags="Background" id="10">
          <mxCell style="verticalAlign=middle;align=center;overflow=width;vsdxID=9;fillColor=#fff7bc;gradientColor=none;shape=stencil(UzV2Ls5ILEhVNTIoLinKz04tz0wpyVA1dlE1MsrMy0gtyiwBslSNXVWNndPyi1LTi/JL81Ig/IJEkEoQKze/DGRCBUSfAUiHkUElMs8NojAnMw9JoaWxnrkpsYoNDVDNNSFBLYyPVTHZSslTCGQgAi4tMycHWQY9iIFCkOgxdgUA);strokeColor=none;strokeWidth=0;spacingTop=-3;spacingBottom=-3;spacingLeft=-3;spacingRight=-3;points=[];labelBackgroundColor=none;rounded=0;html=1;whiteSpace=wrap;" parent="1" vertex="1">
            <mxGeometry x="346" y="41" width="256" height="40" as="geometry" />
          </mxCell>
        </UserObject>
        <UserObject label="" tags="Background" id="11">
          <mxCell style="vsdxID=10;fillColor=#fff7bc;gradientColor=none;shape=stencil(UzV2Ls5ILEhVNTIoLinKz04tz0wpyVA1dlE1MsrMy0gtyiwBslSNXVWNndPyi1LTi/JL81Ig/IJEkEoQKze/DGRCBUSfpbGeuSlIl5FBJUTEAMxzgyjOyczDq9gEj2pDAwOi1RJwBpCB8EBaZk4Osgy6V4FCkGAydgUA);strokeColor=none;strokeWidth=0;spacingTop=-3;spacingBottom=-3;spacingLeft=-3;spacingRight=-3;points=[];labelBackgroundColor=none;rounded=0;html=1;whiteSpace=wrap;" parent="1" vertex="1">
            <mxGeometry x="346" y="41" width="256" height="40" as="geometry" />
          </mxCell>
        </UserObject>
        <UserObject label="" tags="Background" id="12">
          <mxCell style="vsdxID=11;fillColor=none;gradientColor=none;shape=stencil(UzV2Ls5ILEhVNTIoLinKz04tz0wpyVA1dlE1MsrMy0gtyiwBslSNXVWNndPyi1LTi/JL81Ig/IJEkEoQKze/DGRCBUSfAUiHkUElMs8NojAnMw9JoaWxnrkpsYoNDVDNNSFBLYyPVTHZSslTCGQgAg7IQQ9VoBAkRoxdAQ==);strokeColor=none;strokeWidth=0;spacingTop=-3;spacingBottom=-3;spacingLeft=-3;spacingRight=-3;points=[];labelBackgroundColor=none;rounded=0;html=1;whiteSpace=wrap;" parent="1" vertex="1">
            <mxGeometry x="346" y="41" width="256" height="40" as="geometry" />
          </mxCell>
        </UserObject>
        <mxCell id="ZNun7r2rq0hJ698dpIaS-60" style="edgeStyle=orthogonalEdgeStyle;rounded=0;orthogonalLoop=1;jettySize=auto;html=1;" edge="1" parent="1" source="13">
          <mxGeometry relative="1" as="geometry">
            <mxPoint x="860" y="440" as="targetPoint" />
          </mxGeometry>
        </mxCell>
        <UserObject label="&lt;div style=&quot;font-size: 1px&quot;&gt;&lt;p style=&quot;text-align:center;margin-left:0;margin-right:0;margin-top:0px;margin-bottom:0px;text-indent:0;vertical-align:middle;direction:ltr;&quot;&gt;&lt;font style=&quot;font-size:12px;font-family:0;color:#000000;direction:ltr;letter-spacing:0px;line-height:120%;opacity:1&quot;&gt;slowTriggerPool（默认100线程）&lt;/font&gt;&lt;/p&gt;&lt;/div&gt;" tags="Background" id="13">
          <mxCell style="verticalAlign=middle;align=center;overflow=width;vsdxID=12;fillColor=#fff7bc;gradientColor=none;shape=stencil(UzV2Ls5ILEhVNTIoLinKz04tz0wpyVA1dlE1MsrMy0gtyiwBslSNXVWNndPyi1LTi/JL81Ig/IJEkEoQKze/DGRCBUSfAUiHkUElMs8NojAnMw9JoaWxnrkpsYoNDVDNNSFBLYyPVTHZSslTCGQgAi4tMycHWQY9iIFCkOgxdgUA);strokeColor=none;strokeWidth=0;spacingTop=-3;spacingBottom=-3;spacingLeft=-3;spacingRight=-3;points=[];labelBackgroundColor=none;rounded=0;html=1;whiteSpace=wrap;" parent="1" vertex="1">
            <mxGeometry x="346" y="115" width="256" height="40" as="geometry" />
          </mxCell>
        </UserObject>
        <UserObject label="" tags="Background" id="14">
          <mxCell style="vsdxID=13;fillColor=#fff7bc;gradientColor=none;shape=stencil(UzV2Ls5ILEhVNTIoLinKz04tz0wpyVA1dlE1MsrMy0gtyiwBslSNXVWNndPyi1LTi/JL81Ig/IJEkEoQKze/DGRCBUSfpbGeuSlIl5FBJUTEAMxzgyjOyczDq9gEj2pDAwOi1RJwBpCB8EBaZk4Osgy6V4FCkGAydgUA);strokeColor=none;strokeWidth=0;spacingTop=-3;spacingBottom=-3;spacingLeft=-3;spacingRight=-3;points=[];labelBackgroundColor=none;rounded=0;html=1;whiteSpace=wrap;" parent="1" vertex="1">
            <mxGeometry x="346" y="115" width="256" height="40" as="geometry" />
          </mxCell>
        </UserObject>
        <UserObject label="" tags="Background" id="15">
          <mxCell style="vsdxID=14;fillColor=none;gradientColor=none;shape=stencil(UzV2Ls5ILEhVNTIoLinKz04tz0wpyVA1dlE1MsrMy0gtyiwBslSNXVWNndPyi1LTi/JL81Ig/IJEkEoQKze/DGRCBUSfAUiHkUElMs8NojAnMw9JoaWxnrkpsYoNDVDNNSFBLYyPVTHZSslTCGQgAg7IQQ9VoBAkRoxdAQ==);strokeColor=none;strokeWidth=0;spacingTop=-3;spacingBottom=-3;spacingLeft=-3;spacingRight=-3;points=[];labelBackgroundColor=none;rounded=0;html=1;whiteSpace=wrap;" parent="1" vertex="1">
            <mxGeometry x="346" y="115" width="256" height="40" as="geometry" />
          </mxCell>
        </UserObject>
        <UserObject label="&lt;div style=&quot;font-size: 1px&quot;&gt;&lt;p style=&quot;text-align:center;margin-left:0;margin-right:0;margin-top:0px;margin-bottom:0px;text-indent:0;vertical-align:middle;direction:ltr;&quot;&gt;&lt;font style=&quot;font-size:12px;font-family:0;color:#000000;direction:ltr;letter-spacing:0px;line-height:120%;opacity:1&quot;&gt;调度失败时邮件警报JobFailMonitorHelper&lt;/font&gt;&lt;/p&gt;&lt;/div&gt;" tags="Background" id="16">
          <mxCell style="verticalAlign=middle;align=center;overflow=width;vsdxID=15;fillColor=#FFFFFF;gradientColor=none;shape=stencil(lVLRDoIwDPyavS6jA5VnhP8gYcgiMhyg+Pcyi7IBWeJbr73url0JT7oqbwUB1vVaXcVTFn1F+JkAyKYSWvZTRHhKeFIqLS5aDU2BuM0N00Q39TAvjNjHTAewF6ITZeEnkSH3PuSF4QYu2YUjIAQaRjMBbML8Vi0bSzc+0ihytJlHOGB+6aUO+4O44gt9NhPQ+PCP/C/xNWCPs/K068Da1S7bv/iN/Gr6zTyuuP/Pp2A5llLWNd6aXV8f15TCw+TpGw==);strokeColor=#000000;strokeWidth=2;spacingTop=-3;spacingBottom=-3;spacingLeft=-3;spacingRight=-3;points=[];labelBackgroundColor=none;rounded=0;html=1;whiteSpace=wrap;" parent="1" vertex="1">
            <mxGeometry x="140" y="835" width="163" height="49" as="geometry" />
          </mxCell>
        </UserObject>
        <UserObject label="&lt;div style=&quot;font-size: 1px&quot;&gt;&lt;p style=&quot;text-align:center;margin-left:0;margin-right:0;margin-top:0px;margin-bottom:0px;text-indent:0;vertical-align:middle;direction:ltr;&quot;&gt;&lt;font style=&quot;font-size:12px;font-family:0;color:#000000;direction:ltr;letter-spacing:0px;line-height:120%;opacity:1&quot;&gt;monitorThread&lt;/font&gt;&lt;/p&gt;&lt;/div&gt;" tags="Background" id="17">
          <mxCell style="verticalAlign=middle;align=center;overflow=width;vsdxID=16;fillColor=#fff7bc;gradientColor=none;shape=stencil(UzV2Ls5ILEhVNTIoLinKz04tz0wpyVA1dlE1MsrMy0gtyiwBslSNXVWNndPyi1LTi/JL81Ig/IJEkEoQKze/DGRCBUSfAUiHkUElMs8NojAnMw9JoaWxnrkpsYoNDVDNNSFBLYyPVTHZSslTCGQgAi4tMycHWQY9iIFCkOgxdgUA);strokeColor=none;strokeWidth=0;spacingTop=-3;spacingBottom=-3;spacingLeft=-3;spacingRight=-3;points=[];labelBackgroundColor=none;rounded=0;html=1;whiteSpace=wrap;" parent="1" vertex="1">
            <mxGeometry x="430" y="839" width="256" height="40" as="geometry" />
          </mxCell>
        </UserObject>
        <UserObject label="" tags="Background" id="18">
          <mxCell style="vsdxID=17;fillColor=#fff7bc;gradientColor=none;shape=stencil(UzV2Ls5ILEhVNTIoLinKz04tz0wpyVA1dlE1MsrMy0gtyiwBslSNXVWNndPyi1LTi/JL81Ig/IJEkEoQKze/DGRCBUSfpbGeuSlIl5FBJUTEAMxzgyjOyczDq9gEj2pDAwOi1RJwBpCB8EBaZk4Osgy6V4FCkGAydgUA);strokeColor=none;strokeWidth=0;spacingTop=-3;spacingBottom=-3;spacingLeft=-3;spacingRight=-3;points=[];labelBackgroundColor=none;rounded=0;html=1;whiteSpace=wrap;" parent="1" vertex="1">
            <mxGeometry x="430" y="839" width="256" height="40" as="geometry" />
          </mxCell>
        </UserObject>
        <UserObject label="" tags="Background" id="19">
          <mxCell style="vsdxID=18;fillColor=none;gradientColor=none;shape=stencil(UzV2Ls5ILEhVNTIoLinKz04tz0wpyVA1dlE1MsrMy0gtyiwBslSNXVWNndPyi1LTi/JL81Ig/IJEkEoQKze/DGRCBUSfAUiHkUElMs8NojAnMw9JoaWxnrkpsYoNDVDNNSFBLYyPVTHZSslTCGQgAg7IQQ9VoBAkRoxdAQ==);strokeColor=none;strokeWidth=0;spacingTop=-3;spacingBottom=-3;spacingLeft=-3;spacingRight=-3;points=[];labelBackgroundColor=none;rounded=0;html=1;whiteSpace=wrap;" parent="1" vertex="1">
            <mxGeometry x="430" y="839" width="256" height="40" as="geometry" />
          </mxCell>
        </UserObject>
        <UserObject label="&lt;div style=&quot;font-size: 1px&quot;&gt;&lt;p style=&quot;text-align:center;margin-left:0;margin-right:0;margin-top:0px;margin-bottom:0px;text-indent:0;vertical-align:middle;direction:ltr;&quot;&gt;&lt;font style=&quot;font-size:12px;font-family:0;color:#000000;direction:ltr;letter-spacing:0px;line-height:120%;opacity:1&quot;&gt;接收执行器回调信息JobCompleteHelper&lt;/font&gt;&lt;/p&gt;&lt;/div&gt;" tags="Background" id="20">
          <mxCell style="verticalAlign=middle;align=center;overflow=width;vsdxID=19;fillColor=#FFFFFF;gradientColor=none;shape=stencil(jVLRDoIwDPyavS6jM4DPiP9BwpBFZDiG4t/LLMoGZPGt1153166EZ31ddIIA641WV/GUpakJPxEA2dZCSzNFhOeEZ5XS4qLV0JaIu8IybXRTD/vCiH3MdgB7IYppkn4SZ+Teh6K03Mgn+3AEhECjw0wAlzC/1cjW0T0mNI09bRYQjlhYeqnD/iC++EKfzXBq4f/yv8TXgDvOytOuA2dXu+zw4jfyq+k38/ji4T+fguVYKtk0eGtufX1cUwoPk+dv);strokeColor=#000000;strokeWidth=2;spacingTop=-3;spacingBottom=-3;spacingLeft=-3;spacingRight=-3;points=[];labelBackgroundColor=none;rounded=0;html=1;whiteSpace=wrap;" parent="1" vertex="1">
            <mxGeometry x="140" y="721" width="186" height="59" as="geometry" />
          </mxCell>
        </UserObject>
        <UserObject label="&lt;div style=&quot;font-size: 1px&quot;&gt;&lt;p style=&quot;text-align:center;margin-left:0;margin-right:0;margin-top:0px;margin-bottom:0px;text-indent:0;vertical-align:middle;direction:ltr;&quot;&gt;&lt;font style=&quot;font-size:12px;font-family:0;color:#000000;direction:ltr;letter-spacing:0px;line-height:120%;opacity:1&quot;&gt;callbackThreadPool&lt;/font&gt;&lt;/p&gt;&lt;/div&gt;" tags="Background" id="21">
          <mxCell style="verticalAlign=middle;align=center;overflow=width;vsdxID=20;fillColor=#fff7bc;gradientColor=none;shape=stencil(UzV2Ls5ILEhVNTIoLinKz04tz0wpyVA1dlE1MsrMy0gtyiwBslSNXVWNndPyi1LTi/JL81Ig/IJEkEoQKze/DGRCBUSfAUiHkUElMs8NojAnMw9JoaWxnrkpsYoNDVDNNSFBLYyPVTHZSslTCGQgAi4tMycHWQY9iIFCkOgxdgUA);strokeColor=none;strokeWidth=0;spacingTop=-3;spacingBottom=-3;spacingLeft=-3;spacingRight=-3;points=[];labelBackgroundColor=none;rounded=0;html=1;whiteSpace=wrap;" parent="1" vertex="1">
            <mxGeometry x="430" y="691" width="256" height="40" as="geometry" />
          </mxCell>
        </UserObject>
        <UserObject label="" tags="Background" id="22">
          <mxCell style="vsdxID=21;fillColor=#fff7bc;gradientColor=none;shape=stencil(UzV2Ls5ILEhVNTIoLinKz04tz0wpyVA1dlE1MsrMy0gtyiwBslSNXVWNndPyi1LTi/JL81Ig/IJEkEoQKze/DGRCBUSfpbGeuSlIl5FBJUTEAMxzgyjOyczDq9gEj2pDAwOi1RJwBpCB8EBaZk4Osgy6V4FCkGAydgUA);strokeColor=none;strokeWidth=0;spacingTop=-3;spacingBottom=-3;spacingLeft=-3;spacingRight=-3;points=[];labelBackgroundColor=none;rounded=0;html=1;whiteSpace=wrap;" parent="1" vertex="1">
            <mxGeometry x="430" y="691" width="256" height="40" as="geometry" />
          </mxCell>
        </UserObject>
        <UserObject label="" tags="Background" id="23">
          <mxCell style="vsdxID=22;fillColor=none;gradientColor=none;shape=stencil(UzV2Ls5ILEhVNTIoLinKz04tz0wpyVA1dlE1MsrMy0gtyiwBslSNXVWNndPyi1LTi/JL81Ig/IJEkEoQKze/DGRCBUSfAUiHkUElMs8NojAnMw9JoaWxnrkpsYoNDVDNNSFBLYyPVTHZSslTCGQgAg7IQQ9VoBAkRoxdAQ==);strokeColor=none;strokeWidth=0;spacingTop=-3;spacingBottom=-3;spacingLeft=-3;spacingRight=-3;points=[];labelBackgroundColor=none;rounded=0;html=1;whiteSpace=wrap;" parent="1" vertex="1">
            <mxGeometry x="430" y="691" width="256" height="40" as="geometry" />
          </mxCell>
        </UserObject>
        <UserObject label="&lt;div style=&quot;font-size: 1px&quot;&gt;&lt;p style=&quot;text-align:center;margin-left:0;margin-right:0;margin-top:0px;margin-bottom:0px;text-indent:0;vertical-align:middle;direction:ltr;&quot;&gt;&lt;font style=&quot;font-size:12px;font-family:0;color:#000000;direction:ltr;letter-spacing:0px;line-height:120%;opacity:1&quot;&gt;monitorThread&lt;/font&gt;&lt;/p&gt;&lt;/div&gt;" tags="Background" id="24">
          <mxCell style="verticalAlign=middle;align=center;overflow=width;vsdxID=23;fillColor=#fff7bc;gradientColor=none;shape=stencil(UzV2Ls5ILEhVNTIoLinKz04tz0wpyVA1dlE1MsrMy0gtyiwBslSNXVWNndPyi1LTi/JL81Ig/IJEkEoQKze/DGRCBUSfAUiHkUElMs8NojAnMw9JoaWxnrkpsYoNDVDNNSFBLYyPVTHZSslTCGQgAi4tMycHWQY9iIFCkOgxdgUA);strokeColor=none;strokeWidth=0;spacingTop=-3;spacingBottom=-3;spacingLeft=-3;spacingRight=-3;points=[];labelBackgroundColor=none;rounded=0;html=1;whiteSpace=wrap;" parent="1" vertex="1">
            <mxGeometry x="430" y="770" width="256" height="40" as="geometry" />
          </mxCell>
        </UserObject>
        <UserObject label="" tags="Background" id="25">
          <mxCell style="vsdxID=24;fillColor=#fff7bc;gradientColor=none;shape=stencil(UzV2Ls5ILEhVNTIoLinKz04tz0wpyVA1dlE1MsrMy0gtyiwBslSNXVWNndPyi1LTi/JL81Ig/IJEkEoQKze/DGRCBUSfpbGeuSlIl5FBJUTEAMxzgyjOyczDq9gEj2pDAwOi1RJwBpCB8EBaZk4Osgy6V4FCkGAydgUA);strokeColor=none;strokeWidth=0;spacingTop=-3;spacingBottom=-3;spacingLeft=-3;spacingRight=-3;points=[];labelBackgroundColor=none;rounded=0;html=1;whiteSpace=wrap;" parent="1" vertex="1">
            <mxGeometry x="430" y="770" width="256" height="40" as="geometry" />
          </mxCell>
        </UserObject>
        <UserObject label="" tags="Background" id="26">
          <mxCell style="vsdxID=25;fillColor=none;gradientColor=none;shape=stencil(UzV2Ls5ILEhVNTIoLinKz04tz0wpyVA1dlE1MsrMy0gtyiwBslSNXVWNndPyi1LTi/JL81Ig/IJEkEoQKze/DGRCBUSfAUiHkUElMs8NojAnMw9JoaWxnrkpsYoNDVDNNSFBLYyPVTHZSslTCGQgAg7IQQ9VoBAkRoxdAQ==);strokeColor=none;strokeWidth=0;spacingTop=-3;spacingBottom=-3;spacingLeft=-3;spacingRight=-3;points=[];labelBackgroundColor=none;rounded=0;html=1;whiteSpace=wrap;" parent="1" vertex="1">
            <mxGeometry x="430" y="770" width="256" height="40" as="geometry" />
          </mxCell>
        </UserObject>
        <UserObject label="&lt;div style=&quot;font-size: 1px&quot;&gt;&lt;p style=&quot;text-align:center;margin-left:0;margin-right:0;margin-top:0px;margin-bottom:0px;text-indent:0;vertical-align:middle;direction:ltr;&quot;&gt;&lt;font style=&quot;font-size:12px;font-family:0;color:#000000;direction:ltr;letter-spacing:0px;line-height:120%;opacity:1&quot;&gt;统计定时任务日志、清除过期日志JobLogReportHelper&lt;/font&gt;&lt;/p&gt;&lt;/div&gt;" tags="Background" id="27">
          <mxCell style="verticalAlign=middle;align=center;overflow=width;vsdxID=26;fillColor=#FFFFFF;gradientColor=none;shape=stencil(jVLRDoIwDPyavS6jM4DPiP9BwpBFZDiG4t/LLMoGZPGt1153166EZ31ddIIA641WV/GUpakJPxEA2dZCSzNFhOeEZ5XS4qLV0JaIu8IybXRTD/vCiH3MdgB7IYppkn4SZ+Teh6K03Mgn+3AEhECjw0wAlzC/1cjW0T0mNI09bRYQjlhYeqnD/iC++EKfzXBq4f/yv8TXgDvOytOuA2dXu+zw4jfyq+k38/ji4T+fguVYKtk0eGtufX1cUwoPk+dv);strokeColor=#000000;strokeWidth=2;spacingTop=-3;spacingBottom=-3;spacingLeft=-3;spacingRight=-3;points=[];labelBackgroundColor=none;rounded=0;html=1;whiteSpace=wrap;" parent="1" vertex="1">
            <mxGeometry x="140" y="927" width="186" height="59" as="geometry" />
          </mxCell>
        </UserObject>
        <UserObject label="&lt;div style=&quot;font-size: 1px&quot;&gt;&lt;p style=&quot;text-align:center;margin-left:0;margin-right:0;margin-top:0px;margin-bottom:0px;text-indent:0;vertical-align:middle;direction:ltr;&quot;&gt;&lt;font style=&quot;font-size:12px;font-family:0;color:#000000;direction:ltr;letter-spacing:0px;line-height:120%;opacity:1&quot;&gt;logrThread&lt;/font&gt;&lt;/p&gt;&lt;/div&gt;" tags="Background" id="28">
          <mxCell style="verticalAlign=middle;align=center;overflow=width;vsdxID=27;fillColor=#fff7bc;gradientColor=none;shape=stencil(UzV2Ls5ILEhVNTIoLinKz04tz0wpyVA1dlE1MsrMy0gtyiwBslSNXVWNndPyi1LTi/JL81Ig/IJEkEoQKze/DGRCBUSfAUiHkUElMs8NojAnMw9JoaWxnrkpsYoNDVDNNSFBLYyPVTHZSslTCGQgAi4tMycHWQY9iIFCkOgxdgUA);strokeColor=none;strokeWidth=0;spacingTop=-3;spacingBottom=-3;spacingLeft=-3;spacingRight=-3;points=[];labelBackgroundColor=none;rounded=0;html=1;whiteSpace=wrap;" parent="1" vertex="1">
            <mxGeometry x="423" y="936" width="256" height="40" as="geometry" />
          </mxCell>
        </UserObject>
        <UserObject label="" tags="Background" id="29">
          <mxCell style="vsdxID=28;fillColor=#fff7bc;gradientColor=none;shape=stencil(UzV2Ls5ILEhVNTIoLinKz04tz0wpyVA1dlE1MsrMy0gtyiwBslSNXVWNndPyi1LTi/JL81Ig/IJEkEoQKze/DGRCBUSfpbGeuSlIl5FBJUTEAMxzgyjOyczDq9gEj2pDAwOi1RJwBpCB8EBaZk4Osgy6V4FCkGAydgUA);strokeColor=none;strokeWidth=0;spacingTop=-3;spacingBottom=-3;spacingLeft=-3;spacingRight=-3;points=[];labelBackgroundColor=none;rounded=0;html=1;whiteSpace=wrap;" parent="1" vertex="1">
            <mxGeometry x="423" y="936" width="256" height="40" as="geometry" />
          </mxCell>
        </UserObject>
        <UserObject label="" tags="Background" id="30">
          <mxCell style="vsdxID=29;fillColor=none;gradientColor=none;shape=stencil(UzV2Ls5ILEhVNTIoLinKz04tz0wpyVA1dlE1MsrMy0gtyiwBslSNXVWNndPyi1LTi/JL81Ig/IJEkEoQKze/DGRCBUSfAUiHkUElMs8NojAnMw9JoaWxnrkpsYoNDVDNNSFBLYyPVTHZSslTCGQgAg7IQQ9VoBAkRoxdAQ==);strokeColor=none;strokeWidth=0;spacingTop=-3;spacingBottom=-3;spacingLeft=-3;spacingRight=-3;points=[];labelBackgroundColor=none;rounded=0;html=1;whiteSpace=wrap;" parent="1" vertex="1">
            <mxGeometry x="423" y="936" width="256" height="40" as="geometry" />
          </mxCell>
        </UserObject>
        <UserObject label="&lt;div style=&quot;font-size: 1px&quot;&gt;&lt;p style=&quot;text-align:center;margin-left:0;margin-right:0;margin-top:0px;margin-bottom:0px;text-indent:0;vertical-align:middle;direction:ltr;&quot;&gt;&lt;font style=&quot;font-size:12px;font-family:0;color:#000000;direction:ltr;letter-spacing:0px;line-height:120%;opacity:1&quot;&gt;调度线程JobScheduleHelper&lt;/font&gt;&lt;/p&gt;&lt;/div&gt;" tags="Background" id="31">
          <mxCell style="verticalAlign=middle;align=center;overflow=width;vsdxID=30;fillColor=#FFFFFF;gradientColor=none;shape=stencil(lVLRDoIwDPyavS5bJ0GeEf+DhCGLyHCA4t/LLMoGZIlvvfa6u3YlIu2qvJUEWNcbfZVPVfQVEScCoJpKGtVPEREZEWmpjbwYPTQF4ja3TBvd9MO+MGIfsx3AXohieuCfxBm59yEvLJf7ZB+OgPBAeTwTwCXMb9WqcXSTiB6Fp80CwpyFpZc67A/iiy/02QzQKPlH/pf4GnDHWXnadeDsapcdXvxGfjX9Zh5fPPznU7AcS6nqGm/Nra+Pa0rhYYrsDQ==);strokeColor=#000000;strokeWidth=2;spacingTop=-3;spacingBottom=-3;spacingLeft=-3;spacingRight=-3;points=[];labelBackgroundColor=none;rounded=0;html=1;whiteSpace=wrap;" parent="1" vertex="1">
            <mxGeometry x="80" y="506" width="129" height="44" as="geometry" />
          </mxCell>
        </UserObject>
        <UserObject label="&lt;div style=&quot;font-size: 1px&quot;&gt;&lt;p style=&quot;text-align:center;margin-left:0;margin-right:0;margin-top:0px;margin-bottom:0px;text-indent:0;vertical-align:middle;direction:ltr;&quot;&gt;&lt;font style=&quot;font-size:12px;font-family:0;color:#000000;direction:ltr;letter-spacing:0px;line-height:120%;opacity:1&quot;&gt;ringThread&lt;br/&gt;&lt;/font&gt;&lt;font style=&quot;font-size:12px;font-family:0;color:#000000;direction:ltr;letter-spacing:0px;line-height:120%;opacity:1&quot;&gt;按秒循环&lt;/font&gt;&lt;/p&gt;&lt;/div&gt;" tags="Background" id="32">
          <mxCell style="verticalAlign=middle;align=center;overflow=width;vsdxID=31;fillColor=#fff7bc;gradientColor=none;shape=stencil(UzV2Ls5ILEhVNTIoLinKz04tz0wpyVA1dlE1MsrMy0gtyiwBslSNXVWNndPyi1LTi/JL81Ig/IJEkEoQKze/DGRCBUSfAUiHkUElMs8NojAnMw9JoaWxnrkpsYoNDVDNNSFBLYyPVTHZSslTCGQgAi4tMycHWQY9iIFCkOgxdgUA);strokeColor=none;strokeWidth=0;spacingTop=-3;spacingBottom=-3;spacingLeft=-3;spacingRight=-3;points=[];labelBackgroundColor=none;rounded=0;html=1;whiteSpace=wrap;" parent="1" vertex="1">
            <mxGeometry x="327" y="572" width="256" height="40" as="geometry" />
          </mxCell>
        </UserObject>
        <UserObject label="" tags="Background" id="33">
          <mxCell style="vsdxID=32;fillColor=#fff7bc;gradientColor=none;shape=stencil(UzV2Ls5ILEhVNTIoLinKz04tz0wpyVA1dlE1MsrMy0gtyiwBslSNXVWNndPyi1LTi/JL81Ig/IJEkEoQKze/DGRCBUSfpbGeuSlIl5FBJUTEAMxzgyjOyczDq9gEj2pDAwOi1RJwBpCB8EBaZk4Osgy6V4FCkGAydgUA);strokeColor=none;strokeWidth=0;spacingTop=-3;spacingBottom=-3;spacingLeft=-3;spacingRight=-3;points=[];labelBackgroundColor=none;rounded=0;html=1;whiteSpace=wrap;" parent="1" vertex="1">
            <mxGeometry x="327" y="572" width="256" height="40" as="geometry" />
          </mxCell>
        </UserObject>
        <UserObject label="" tags="Background" id="34">
          <mxCell style="vsdxID=33;fillColor=none;gradientColor=none;shape=stencil(UzV2Ls5ILEhVNTIoLinKz04tz0wpyVA1dlE1MsrMy0gtyiwBslSNXVWNndPyi1LTi/JL81Ig/IJEkEoQKze/DGRCBUSfAUiHkUElMs8NojAnMw9JoaWxnrkpsYoNDVDNNSFBLYyPVTHZSslTCGQgAg7IQQ9VoBAkRoxdAQ==);strokeColor=none;strokeWidth=0;spacingTop=-3;spacingBottom=-3;spacingLeft=-3;spacingRight=-3;points=[];labelBackgroundColor=none;rounded=0;html=1;whiteSpace=wrap;" parent="1" vertex="1">
            <mxGeometry x="327" y="572" width="256" height="40" as="geometry" />
          </mxCell>
        </UserObject>
        <UserObject label="&lt;div style=&quot;font-size: 1px&quot;&gt;&lt;p style=&quot;text-align:center;margin-left:0;margin-right:0;margin-top:0px;margin-bottom:0px;text-indent:0;vertical-align:middle;direction:ltr;&quot;&gt;&lt;font style=&quot;font-size:12px;font-family:0;color:#000000;direction:ltr;letter-spacing:0px;line-height:120%;opacity:1&quot;&gt;scheduleThread&lt;br/&gt;&lt;/font&gt;&lt;font style=&quot;font-size:12px;font-family:0;color:#000000;direction:ltr;letter-spacing:0px;line-height:120%;opacity:1&quot;&gt;每次取+5秒内的任务&lt;br/&gt;&lt;/font&gt;&lt;font style=&quot;font-size:12px;font-family:0;color:#000000;direction:ltr;letter-spacing:0px;line-height:120%;opacity:1&quot;&gt;(默认调度每个任务耗时50ms)&lt;br/&gt;线程池快+慢=300&lt;br/&gt;最多读取300*1秒/50ms=6000个任务&lt;/font&gt;&lt;/p&gt;&lt;/div&gt;" tags="Background" id="35">
          <mxCell style="verticalAlign=middle;align=center;overflow=width;vsdxID=34;fillColor=#fff7bc;gradientColor=none;shape=stencil(UzV2Ls5ILEhVNTIoLinKz04tz0wpyVA1dlE1MsrMy0gtyiwBslSNXVWNndPyi1LTi/JL81Ig/IJEkEoQKze/DGRCBUSfAUiHkUElMs8NojAnMw9JoaWJnhGxag0NUI01tNQzNyVBuQEes8lWSp5CIAMRdGmZOTnIMuiBDBSCRJCxKwA=);strokeColor=none;strokeWidth=0;spacingTop=-3;spacingBottom=-3;spacingLeft=-3;spacingRight=-3;points=[];labelBackgroundColor=none;rounded=0;html=1;whiteSpace=wrap;" parent="1" vertex="1">
            <mxGeometry x="370" y="399" width="260" height="81" as="geometry" />
          </mxCell>
        </UserObject>
        <UserObject label="" tags="Background" id="36">
          <mxCell style="vsdxID=35;fillColor=#fff7bc;gradientColor=none;shape=stencil(UzV2Ls5ILEhVNTIoLinKz04tz0wpyVA1dlE1MsrMy0gtyiwBslSNXVWNndPyi1LTi/JL81Ig/IJEkEoQKze/DGRCBUSfpYmeEUiTkUElRMAAzHODqM3JzMOn1tBSz9wUt3pDAwNSlON3CpCB8ENaZk4Osgy6b4FCkJAydgUA);strokeColor=none;strokeWidth=0;spacingTop=-3;spacingBottom=-3;spacingLeft=-3;spacingRight=-3;points=[];labelBackgroundColor=none;rounded=0;html=1;whiteSpace=wrap;" parent="1" vertex="1">
            <mxGeometry x="327" y="399" width="276" height="81" as="geometry" />
          </mxCell>
        </UserObject>
        <UserObject label="" tags="Background" id="37">
          <mxCell style="vsdxID=36;fillColor=none;gradientColor=none;shape=stencil(UzV2Ls5ILEhVNTIoLinKz04tz0wpyVA1dlE1MsrMy0gtyiwBslSNXVWNndPyi1LTi/JL81Ig/IJEkEoQKze/DGRCBUSfAUiHkUElMs8NojAnMw9JoaWJnhGxag0NUI01tNQzNyVBuQEes8lWSp5CIAMRdEAOergChSBxYuwKAA==);strokeColor=none;strokeWidth=0;spacingTop=-3;spacingBottom=-3;spacingLeft=-3;spacingRight=-3;points=[];labelBackgroundColor=none;rounded=0;html=1;whiteSpace=wrap;" parent="1" vertex="1">
            <mxGeometry x="327" y="399" width="276" height="81" as="geometry" />
          </mxCell>
        </UserObject>
        <UserObject label="&lt;span style=&quot;color: rgb(50, 50, 50); font-family: &amp;quot;Microsoft YaHei&amp;quot;, 微软雅黑, Arial; font-size: 13px; background-color: rgba(255, 255, 255, 0.01);&quot;&gt;ringData：Map&amp;lt;Integer, List&amp;lt;Integer&amp;gt;&amp;gt;&lt;/span&gt;&lt;div style=&quot;resize: none; outline: none; font-size: 13px; color: rgb(50, 50, 50); font-family: &amp;quot;Microsoft YaHei&amp;quot;, 微软雅黑, Arial;&quot;&gt;Map的key为时间轮中任务的执行时间，value是需要执行的定时任务的集合，这个集合中的数据就是需要执行的定时任务的id&lt;/div&gt;&lt;div style=&quot;font-size: 1px&quot;&gt;&lt;p style=&quot;text-align:center;margin-left:0;margin-right:0;margin-top:0px;margin-bottom:0px;text-indent:0;vertical-align:middle;direction:ltr;&quot;&gt;&lt;/p&gt;&lt;/div&gt;" tags="Background" id="38">
          <mxCell style="verticalAlign=middle;align=center;overflow=width;vsdxID=37;fillColor=#fff7bc;gradientColor=none;shape=stencil(UzV2Ls5ILEhVNTIoLinKz04tz0wpyVA1dlE1MsrMy0gtyiwBslSNXVWNndPyi1LTi/JL81Ig/IJEkEoQKze/DGRCBUSfAUiHkUElMs8NojAnMw9JoaWZnrExsYoNDVDNNTLSszAjXjmMj1Ux2UrJUwhkIMIuLTMnB1kGPZSBQpAYMnYFAA==);strokeColor=none;strokeWidth=0;spacingTop=-3;spacingBottom=-3;spacingLeft=-3;spacingRight=-3;points=[];labelBackgroundColor=none;rounded=0;html=1;whiteSpace=wrap;" parent="1" vertex="1">
            <mxGeometry x="690" y="480" width="436" height="70" as="geometry" />
          </mxCell>
        </UserObject>
        <UserObject label="" tags="Background" id="39">
          <mxCell style="vsdxID=38;fillColor=#fff7bc;gradientColor=none;shape=stencil(UzV2Ls5ILEhVNTIoLinKz04tz0wpyVA1dlE1MsrMy0gtyiwBslSNXVWNndPyi1LTi/JL81Ig/IJEkEoQKze/DGRCBUSfpZmesTFIl5FBJUTEAMxzgyjOyczDq9jISM/CDLcGQwMDUpQTcAyQgfBGWmZODrIMuoeBQpDAMnYFAA==);strokeColor=none;strokeWidth=0;spacingTop=-3;spacingBottom=-3;spacingLeft=-3;spacingRight=-3;points=[];labelBackgroundColor=none;rounded=0;html=1;whiteSpace=wrap;" parent="1" vertex="1">
            <mxGeometry x="679" y="498" width="436" height="70" as="geometry" />
          </mxCell>
        </UserObject>
        <UserObject label="" tags="Background" id="40">
          <mxCell style="vsdxID=39;fillColor=none;gradientColor=none;shape=stencil(UzV2Ls5ILEhVNTIoLinKz04tz0wpyVA1dlE1MsrMy0gtyiwBslSNXVWNndPyi1LTi/JL81Ig/IJEkEoQKze/DGRCBUSfAUiHkUElMs8NojAnMw9JoaWZnrExsYoNDVDNNTLSszAjXjmMj1Ux2UrJUwhkIMIOyEEPWKAQJFKMXQE=);strokeColor=none;strokeWidth=0;spacingTop=-3;spacingBottom=-3;spacingLeft=-3;spacingRight=-3;points=[];labelBackgroundColor=none;rounded=0;html=1;whiteSpace=wrap;" parent="1" vertex="1">
            <mxGeometry x="679" y="498" width="436" height="70" as="geometry" />
          </mxCell>
        </UserObject>
        <UserObject label="&lt;div style=&quot;font-size: 1px&quot;&gt;&lt;p style=&quot;text-align:center;margin-left:0;margin-right:0;margin-top:0px;margin-bottom:0px;text-indent:0;vertical-align:middle;direction:ltr;&quot;&gt;&lt;font style=&quot;font-size:12px;font-family:0;color:#000000;direction:ltr;letter-spacing:0px;line-height:120%;opacity:1&quot;&gt;TriggerCallbackThread启动回调执行结果信息给调度中心的组件&lt;br/&gt;&lt;/font&gt;&lt;font style=&quot;font-size:12px;font-family:0;color:#000000;direction:ltr;letter-spacing:0px;line-height:120%;opacity:1&quot;&gt;callBackQueue&lt;/font&gt;&lt;/p&gt;&lt;/div&gt;" tags="Background" id="41">
          <mxCell style="verticalAlign=middle;align=center;overflow=width;vsdxID=40;fillColor=#FFFFFF;gradientColor=none;shape=stencil(lVLLEoIwDPyaXjslpT7OiP/BDEU6IsUCin8vNQgtMDjessmmu0lDeFTnSSUJsLox+iqfKm1ywk8EQJW5NKrpI8JjwqNMG3kxui1TxFVimTa66Yd9ocM+ZjuAvRAJut99Emfk3tsktdzAJ/uwA4QBFWIggEsY3ipU6egeDzQUnjbbEA7YD+mxDuuD+OITfTATUgj/kR8TXwPuODNP6w6mXa2ytxe/kJ9Nv5jHF9/+8z6YjiVTRYG35tbnx9Wn8DB5/AY=);strokeColor=#000000;strokeWidth=2;spacingTop=-3;spacingBottom=-3;spacingLeft=-3;spacingRight=-3;points=[];labelBackgroundColor=none;rounded=0;html=1;whiteSpace=wrap;" parent="1" vertex="1">
            <mxGeometry x="1463" y="900" width="257" height="69" as="geometry" />
          </mxCell>
        </UserObject>
        <UserObject label="&lt;div style=&quot;font-size: 1px&quot;&gt;&lt;p style=&quot;text-align:center;margin-left:0;margin-right:0;margin-top:0px;margin-bottom:0px;text-indent:0;vertical-align:middle;direction:ltr;&quot;&gt;&lt;font style=&quot;font-size:12px;font-family:0;color:#000000;direction:ltr;letter-spacing:0px;line-height:120%;opacity:1&quot;&gt;initEmbedServer（Netty做Http服务器）&lt;/font&gt;&lt;/p&gt;&lt;/div&gt;" tags="Background" id="42">
          <mxCell style="verticalAlign=middle;align=center;overflow=width;vsdxID=41;fillColor=#FFFFFF;gradientColor=none;shape=stencil(lVLbEoIgEP0aXhlYmgafzf7DGTCZTAy17O+TMAU1nd72cpazZzmIxXWeVhIBqRujr/KpRJMjdkIAqsylUU0fIZYgFmfayIvRbSlcXqUWaaObftgXOjdH7ASQl8soxZR+KmcHvrepsGAaosO0g2EaH4Y++P3hqUKVHm/E8TGgJhu0lOwQj334oSMkn/Au5xzz6B/+sfDdwJMz22l9gfFSq+Dtqy/IZ+IXakLunR/vg8krmSoKZzW/P/dWX3K+ZMkb);strokeColor=#000000;strokeWidth=2;spacingTop=-3;spacingBottom=-3;spacingLeft=-3;spacingRight=-3;points=[];labelBackgroundColor=none;rounded=0;html=1;whiteSpace=wrap;" parent="1" vertex="1">
            <mxGeometry x="1430" y="628" width="285" height="36" as="geometry" />
          </mxCell>
        </UserObject>
        <UserObject label="&lt;div style=&quot;&quot;&gt;&lt;p style=&quot;font-size: 1px; margin: 0px; text-indent: 0px; vertical-align: middle; direction: ltr;&quot;&gt;&lt;font style=&quot;font-size: 12px; color: rgb(0, 0, 0); direction: ltr; letter-spacing: 0px; line-height: 120%; opacity: 1;&quot;&gt;JobThread（一个任务ID对应一个线程）&lt;br&gt;&lt;/font&gt;&lt;font style=&quot;font-size: 12px; direction: ltr; letter-spacing: 0px; line-height: 120%; opacity: 1;&quot;&gt;&lt;font style=&quot;color: rgb(255, 51, 51);&quot;&gt;内部执行队列：&lt;/font&gt;&lt;b style=&quot;&quot;&gt;&lt;font style=&quot;color: rgb(255, 51, 51);&quot;&gt;triggerQueue （无界队列 容易OOM）&lt;/font&gt;&lt;/b&gt;&lt;/font&gt;&lt;/p&gt;&lt;p style=&quot;margin: 0px; text-indent: 0px; vertical-align: middle; direction: ltr;&quot;&gt;阻塞策略：默认是串行执行，&lt;/p&gt;&lt;p style=&quot;margin: 0px; text-indent: 0px; vertical-align: middle; direction: ltr;&quot;&gt;如果队列满了或者线程正在执行时：&lt;/p&gt;&lt;p style=&quot;margin: 0px; text-indent: 0px; vertical-align: middle; direction: ltr;&quot;&gt;&amp;nbsp; 1：策略是丢弃，则不会执行发送过来的任务&lt;/p&gt;&lt;p style=&quot;margin: 0px; text-indent: 0px; vertical-align: middle; direction: ltr;&quot;&gt;&amp;nbsp; 2：如果策略是覆盖，则会重新创建JobThread&lt;/p&gt;&lt;/div&gt;" tags="Background" id="43">
          <mxCell style="verticalAlign=middle;align=left;overflow=width;vsdxID=42;fillColor=#FFFFFF;gradientColor=none;shape=stencil(lZLLDoIwEEW/pltSZhLFNeJ/kFCkESmWh/j3tg5CCwTjbh63PXfaYRg3RVoLBrxptbqJp8zaguGZAciqEFq2JmKYMIxzpcVVq67KKK9Tq7TRXfX2hoHOcXsC+IuyKED8FC6kfXRpZrWhL/bTASgNg0M0CsAVjHeVsnK4J4MCj813wCH/gZ76sD2ID5/loxlj/fgPfip8DbjjLDxtO5jfalO9//Ar/GL61Tw+fP/PTTAvSy7LknbN7S+Xy5RoMTF5Aw==);strokeColor=#000000;strokeWidth=2;spacingTop=-3;spacingBottom=-3;spacingLeft=-3;spacingRight=-3;points=[];labelBackgroundColor=none;rounded=0;html=1;whiteSpace=wrap;" parent="1" vertex="1">
            <mxGeometry x="1450" y="766" width="500" height="104" as="geometry" />
          </mxCell>
        </UserObject>
        <UserObject label="&lt;div style=&quot;font-size: 1px&quot;&gt;&lt;p style=&quot;text-align:center;margin-left:0;margin-right:0;margin-top:0px;margin-bottom:0px;text-indent:0;vertical-align:middle;direction:ltr;&quot;&gt;&lt;font style=&quot;font-size:12px;font-family:0;color:#000000;direction:ltr;letter-spacing:0px;line-height:120%;opacity:1&quot;&gt;registryThread&lt;br/&gt;&lt;/font&gt;&lt;font style=&quot;font-size:12px;font-family:0;color:#000000;direction:ltr;letter-spacing:0px;line-height:120%;opacity:1&quot;&gt;每隔30秒注册1次&lt;/font&gt;&lt;/p&gt;&lt;/div&gt;" tags="Background" id="44">
          <mxCell style="verticalAlign=middle;align=center;overflow=width;vsdxID=43;fillColor=#FFFFFF;gradientColor=none;shape=stencil(lZLLDoIwEEW/pltSZhLFNeJ/kFCkESmWh/j3tg5CCwTjbh63PXfaYRg3RVoLBrxptbqJp8zaguGZAciqEFq2JmKYMIxzpcVVq67KKK9Tq7TRXfX2hoHOcXsC+IuyKED8FC6kfXRpZrWhL/bTASgNg0M0CsAVjHeVsnK4J4MCj813wCH/gZ76sD2ID5/loxlj/fgPfip8DbjjLDxtO5jfalO9//Ar/GL61Tw+fP/PTTAvSy7LknbN7S+Xy5RoMTF5Aw==);strokeColor=#000000;strokeWidth=2;spacingTop=-3;spacingBottom=-3;spacingLeft=-3;spacingRight=-3;points=[];labelBackgroundColor=none;rounded=0;html=1;whiteSpace=wrap;" parent="1" vertex="1">
            <mxGeometry x="1463" y="683" width="238" height="48" as="geometry" />
          </mxCell>
        </UserObject>
        <UserObject label="" tags="Background" id="45">
          <mxCell style="vsdxID=44;edgeStyle=none;startArrow=none;endArrow=block;startSize=5;endSize=5;strokeWidth=2;spacingTop=0;spacingBottom=0;spacingLeft=0;spacingRight=0;verticalAlign=middle;html=1;labelBackgroundColor=#ffffff;rounded=0;exitX=1;exitY=0.5;exitDx=0;exitDy=0;exitPerimeter=0;entryX=0;entryY=0.5121951219512195;entryDx=0;entryDy=0;entryPerimeter=0;" parent="1" source="3" target="4" edge="1">
            <mxGeometry relative="1" as="geometry">
              <mxPoint x="-38" y="73" as="offset" />
              <Array as="points">
                <mxPoint x="273.75" y="267" />
                <mxPoint x="273.75" y="209.5" />
              </Array>
            </mxGeometry>
          </mxCell>
        </UserObject>
        <UserObject label="" tags="Background" id="46">
          <mxCell style="vsdxID=45;edgeStyle=none;startArrow=none;endArrow=block;startSize=5;endSize=5;strokeWidth=2;spacingTop=0;spacingBottom=0;spacingLeft=0;spacingRight=0;verticalAlign=middle;html=1;labelBackgroundColor=#ffffff;rounded=0;exitX=1;exitY=0.5;exitDx=0;exitDy=0;exitPerimeter=0;entryX=0;entryY=0.5102040816326531;entryDx=0;entryDy=0;entryPerimeter=0;" parent="1" source="3" target="7" edge="1">
            <mxGeometry relative="1" as="geometry">
              <mxPoint x="-38" y="123" as="offset" />
              <Array as="points">
                <mxPoint x="273.75" y="267" />
                <mxPoint x="273.75" y="310.88" />
              </Array>
            </mxGeometry>
          </mxCell>
        </UserObject>
        <UserObject label="" tags="Background" id="47">
          <mxCell style="vsdxID=46;edgeStyle=none;startArrow=none;endArrow=block;startSize=5;endSize=5;strokeWidth=2;spacingTop=0;spacingBottom=0;spacingLeft=0;spacingRight=0;verticalAlign=middle;html=1;labelBackgroundColor=#ffffff;rounded=0;exitX=1;exitY=0.5;exitDx=0;exitDy=0;exitPerimeter=0;entryX=0;entryY=0.5;entryDx=0;entryDy=0;entryPerimeter=0;" parent="1" source="2" target="10" edge="1">
            <mxGeometry relative="1" as="geometry">
              <mxPoint x="-55" y="77" as="offset" />
              <Array as="points">
                <mxPoint x="290.75" y="108" />
                <mxPoint x="290.75" y="61" />
              </Array>
            </mxGeometry>
          </mxCell>
        </UserObject>
        <UserObject label="" tags="Background" id="48">
          <mxCell style="vsdxID=47;edgeStyle=none;startArrow=none;endArrow=block;startSize=5;endSize=5;strokeWidth=2;spacingTop=0;spacingBottom=0;spacingLeft=0;spacingRight=0;verticalAlign=middle;html=1;labelBackgroundColor=#ffffff;rounded=0;exitX=1;exitY=0.5;exitDx=0;exitDy=0;exitPerimeter=0;entryX=0;entryY=0.5;entryDx=0;entryDy=0;entryPerimeter=0;" parent="1" source="2" target="13" edge="1">
            <mxGeometry relative="1" as="geometry">
              <mxPoint x="-55" y="115" as="offset" />
              <Array as="points">
                <mxPoint x="290.75" y="108" />
                <mxPoint x="290.75" y="135" />
              </Array>
            </mxGeometry>
          </mxCell>
        </UserObject>
        <UserObject label="" tags="Background" id="49">
          <mxCell style="vsdxID=48;edgeStyle=none;startArrow=none;endArrow=block;startSize=5;endSize=5;strokeWidth=2;spacingTop=0;spacingBottom=0;spacingLeft=0;spacingRight=0;verticalAlign=middle;html=1;labelBackgroundColor=#ffffff;rounded=0;exitX=1;exitY=0.4897959183673469;exitDx=0;exitDy=0;exitPerimeter=0;entryX=0;entryY=0.5;entryDx=0;entryDy=0;entryPerimeter=0;" parent="1" source="16" target="17" edge="1">
            <mxGeometry relative="1" as="geometry">
              <mxPoint x="-63" y="102" as="offset" />
              <Array as="points">
                <mxPoint x="366.25" y="859" />
                <mxPoint x="366.25" y="859" />
              </Array>
            </mxGeometry>
          </mxCell>
        </UserObject>
        <UserObject label="" tags="Background" id="50">
          <mxCell style="vsdxID=49;edgeStyle=none;startArrow=none;endArrow=block;startSize=5;endSize=5;strokeWidth=2;spacingTop=0;spacingBottom=0;spacingLeft=0;spacingRight=0;verticalAlign=middle;html=1;labelBackgroundColor=#ffffff;rounded=0;exitX=1.0053763440860215;exitY=0.4915254237288136;exitDx=0;exitDy=0;exitPerimeter=0;entryX=0;entryY=0.5;entryDx=0;entryDy=0;entryPerimeter=0;" parent="1" source="20" target="21" edge="1">
            <mxGeometry relative="1" as="geometry">
              <mxPoint x="-52" y="82" as="offset" />
              <Array as="points">
                <mxPoint x="378.5" y="750" />
                <mxPoint x="378.5" y="711.25" />
              </Array>
            </mxGeometry>
          </mxCell>
        </UserObject>
        <UserObject label="" tags="Background" id="51">
          <mxCell style="vsdxID=50;edgeStyle=none;startArrow=none;endArrow=block;startSize=5;endSize=5;strokeWidth=2;spacingTop=0;spacingBottom=0;spacingLeft=0;spacingRight=0;verticalAlign=middle;html=1;labelBackgroundColor=#ffffff;rounded=0;exitX=1.0053763440860215;exitY=0.4915254237288136;exitDx=0;exitDy=0;exitPerimeter=0;entryX=0;entryY=0.5;entryDx=0;entryDy=0;entryPerimeter=0;" parent="1" source="20" target="24" edge="1">
            <mxGeometry relative="1" as="geometry">
              <mxPoint x="-52" y="121" as="offset" />
              <Array as="points">
                <mxPoint x="378.5" y="750" />
                <mxPoint x="378.5" y="790.13" />
              </Array>
            </mxGeometry>
          </mxCell>
        </UserObject>
        <UserObject label="" tags="Background" id="52">
          <mxCell style="vsdxID=51;edgeStyle=none;startArrow=none;endArrow=block;startSize=5;endSize=5;strokeWidth=2;spacingTop=0;spacingBottom=0;spacingLeft=0;spacingRight=0;verticalAlign=middle;html=1;labelBackgroundColor=#ffffff;rounded=0;exitX=1.0053763440860215;exitY=0.4915254237288136;exitDx=0;exitDy=0;exitPerimeter=0;entryX=0;entryY=0.5;entryDx=0;entryDy=0;entryPerimeter=0;" parent="1" source="27" target="28" edge="1">
            <mxGeometry relative="1" as="geometry">
              <mxPoint x="-48" y="102" as="offset" />
              <Array as="points">
                <mxPoint x="375" y="956" />
                <mxPoint x="375" y="956" />
              </Array>
            </mxGeometry>
          </mxCell>
        </UserObject>
        <UserObject label="" tags="Background" id="53">
          <mxCell style="vsdxID=52;edgeStyle=none;startArrow=none;endArrow=block;startSize=5;endSize=5;strokeWidth=2;spacingTop=0;spacingBottom=0;spacingLeft=0;spacingRight=0;verticalAlign=middle;html=1;labelBackgroundColor=#ffffff;rounded=0;exitX=1;exitY=0.5;exitDx=0;exitDy=0;exitPerimeter=0;entryX=0;entryY=0.5;entryDx=0;entryDy=0;entryPerimeter=0;" parent="1" source="31" target="32" edge="1">
            <mxGeometry relative="1" as="geometry">
              <mxPoint x="-59" y="131" as="offset" />
              <Array as="points">
                <mxPoint x="267.75" y="533" />
                <mxPoint x="267.75" y="592" />
              </Array>
            </mxGeometry>
          </mxCell>
        </UserObject>
        <UserObject label="" tags="Background" id="54">
          <mxCell style="vsdxID=53;edgeStyle=none;startArrow=none;endArrow=block;startSize=5;endSize=5;strokeWidth=2;spacingTop=0;spacingBottom=0;spacingLeft=0;spacingRight=0;verticalAlign=middle;html=1;labelBackgroundColor=#ffffff;rounded=0;exitX=1;exitY=0.5;exitDx=0;exitDy=0;exitPerimeter=0;entryX=0;entryY=0.49382716049382713;entryDx=0;entryDy=0;entryPerimeter=0;" parent="1" source="31" target="35" edge="1">
            <mxGeometry relative="1" as="geometry">
              <mxPoint x="-59" y="55" as="offset" />
              <Array as="points">
                <mxPoint x="267.75" y="533" />
                <mxPoint x="267.75" y="439.5" />
              </Array>
            </mxGeometry>
          </mxCell>
        </UserObject>
        <UserObject label="&lt;div style=&quot;font-size: 1px&quot;&gt;&lt;p style=&quot;text-align:center;margin-left:0;margin-right:0;margin-top:0px;margin-bottom:0px;text-indent:0;vertical-align:middle;direction:ltr;&quot;&gt;&lt;font style=&quot;font-size:12px;font-family:0;color:#000000;direction:ltr;letter-spacing:0px;line-height:120%;opacity:1&quot;&gt;移除数据&lt;/font&gt;&lt;/p&gt;&lt;/div&gt;" tags="Background" id="56">
          <mxCell style="vsdxID=55;edgeStyle=none;startArrow=none;endArrow=block;startSize=5;endSize=5;strokeWidth=2;spacingTop=0;spacingBottom=0;spacingLeft=0;spacingRight=0;verticalAlign=middle;html=1;labelBackgroundColor=#ffffff;rounded=0;align=center;exitX=0.5;exitY=1;exitDx=0;exitDy=0;exitPerimeter=0;entryX=1;entryY=0.5;entryDx=0;entryDy=0;entryPerimeter=0;" parent="1" source="38" target="32" edge="1">
            <mxGeometry relative="1" as="geometry">
              <mxPoint x="-28" as="offset" />
              <Array as="points">
                <mxPoint x="897" y="592" />
              </Array>
            </mxGeometry>
          </mxCell>
        </UserObject>
        <UserObject label="" tags="Background" id="57">
          <mxCell style="vsdxID=56;edgeStyle=none;startArrow=none;endArrow=block;startSize=5;endSize=5;strokeWidth=2;spacingTop=0;spacingBottom=0;spacingLeft=0;spacingRight=0;verticalAlign=middle;html=1;labelBackgroundColor=#ffffff;rounded=0;exitX=0.5;exitY=1;exitDx=0;exitDy=0;exitPerimeter=0;entryX=0;entryY=0.5;entryDx=0;entryDy=0;entryPerimeter=0;" parent="1" source="32" target="42" edge="1">
            <mxGeometry relative="1" as="geometry">
              <mxPoint x="-471" y="101" as="offset" />
              <Array as="points">
                <mxPoint x="455" y="646" />
              </Array>
            </mxGeometry>
          </mxCell>
        </UserObject>
        <mxCell id="58" parent="1" vertex="1">
          <mxGeometry x="380" y="751" as="geometry" />
        </mxCell>
        <UserObject label="" tags="Background" id="59">
          <mxCell style="vsdxID=57;edgeStyle=none;startArrow=none;endArrow=block;startSize=5;endSize=5;strokeWidth=2;spacingTop=0;spacingBottom=0;spacingLeft=0;spacingRight=0;verticalAlign=middle;html=1;labelBackgroundColor=#ffffff;rounded=0;exitX=0;exitY=0.5072463768115942;exitDx=0;exitDy=0;exitPerimeter=0;" parent="1" source="41" target="58" edge="1">
            <mxGeometry relative="1" as="geometry">
              <mxPoint x="532" y="35" as="offset" />
              <Array as="points">
                <mxPoint x="990" y="820" />
                <mxPoint x="911.75" y="750.81" />
              </Array>
            </mxGeometry>
          </mxCell>
        </UserObject>
        <mxCell id="-idQC0JTP8DtA2wJ63T--60" style="edgeStyle=orthogonalEdgeStyle;rounded=0;orthogonalLoop=1;jettySize=auto;html=1;entryX=0.544;entryY=0;entryDx=0;entryDy=0;entryPerimeter=0;" parent="1" source="35" target="38" edge="1">
          <mxGeometry relative="1" as="geometry" />
        </mxCell>
        <mxCell id="-idQC0JTP8DtA2wJ63T--61" value="" style="rounded=1;whiteSpace=wrap;html=1;" parent="1" vertex="1">
          <mxGeometry x="1006" y="129" width="120" height="60" as="geometry" />
        </mxCell>
      </root>
    </mxGraphModel>
  </diagram>
</mxfile>
